<svg width="512" height="512" viewBox="0 0 512 512" fill="none" xmlns="http://www.w3.org/2000/svg">
<rect width="512" height="512" fill="black"/>
<ellipse cx="256" cy="257.5" rx="256" ry="254.5" fill="#FF9900"/>
<path d="M97.5572 366V147.818H229.233V171.256H123.978V244.977H222.415V268.415H123.978V342.562H230.938V366H97.5572ZM276.854 366V147.818H350.576C367.692 147.818 381.684 150.908 392.55 157.087C403.488 163.195 411.584 171.469 416.84 181.909C422.096 192.349 424.723 203.997 424.723 216.852C424.723 229.707 422.096 241.391 416.84 251.902C411.655 262.413 403.63 270.794 392.763 277.044C381.897 283.223 367.976 286.312 351.002 286.312H298.161V262.875H350.15C361.868 262.875 371.279 260.851 378.381 256.803C385.483 252.754 390.632 247.286 393.828 240.396C397.096 233.436 398.729 225.588 398.729 216.852C398.729 208.116 397.096 200.304 393.828 193.415C390.632 186.526 385.448 181.128 378.275 177.222C371.101 173.244 361.584 171.256 349.723 171.256H303.275V366H276.854Z" fill="black"/>
</svg>
